<svg width="181" height="76" viewBox="0 0 181 76" fill="none" xmlns="http://www.w3.org/2000/svg">
<path d="M95.172 46C94.9267 46 94.804 45.9003 94.804 45.701C94.804 45.6243 94.827 45.54 94.873 45.448L98.783 37.743L98.576 30.452C98.576 30.084 98.737 29.9 99.059 29.9H101.267C101.42 29.9 101.528 29.9307 101.589 29.992C101.65 30.038 101.681 30.1377 101.681 30.291L101.635 34.27L101.497 36.225H101.842L102.647 34.27L104.441 30.291C104.502 30.1377 104.579 30.038 104.671 29.992C104.763 29.9307 104.886 29.9 105.039 29.9H107.362C107.623 29.9 107.753 29.992 107.753 30.176C107.753 30.2373 107.73 30.3293 107.684 30.452L104.119 37.743L104.487 45.448V45.517C104.487 45.839 104.334 46 104.027 46H101.681C101.528 46 101.42 45.9693 101.359 45.908C101.298 45.8467 101.267 45.7393 101.267 45.586L101.198 41.4L101.313 39.56H100.968L100.232 41.4L98.231 45.609C98.1543 45.747 98.07 45.8467 97.978 45.908C97.9013 45.9693 97.794 46 97.656 46H95.172ZM114.485 29.9C116.754 29.9 117.889 30.751 117.889 32.453C117.889 32.8057 117.827 33.2427 117.705 33.764L117.268 35.581C117.007 36.6697 116.616 37.4823 116.095 38.019C115.573 38.5403 114.768 38.801 113.68 38.801H110.713L109.149 45.563C109.118 45.7163 109.064 45.8313 108.988 45.908C108.911 45.9693 108.796 46 108.643 46H106.366C106.013 46 105.875 45.839 105.952 45.517L109.448 30.337C109.478 30.1837 109.532 30.0763 109.609 30.015C109.701 29.9383 109.823 29.9 109.977 29.9H114.485ZM114.508 33.58C114.538 33.396 114.554 33.281 114.554 33.235C114.554 32.6983 114.209 32.43 113.519 32.43H112.185L111.288 36.271H112.921C113.304 36.271 113.572 36.1867 113.726 36.018C113.894 35.8493 114.032 35.5503 114.14 35.121L114.508 33.58ZM127.91 29.9C128.263 29.9 128.401 30.061 128.324 30.383L127.91 32.108C127.879 32.2613 127.826 32.3763 127.749 32.453C127.672 32.5143 127.557 32.545 127.404 32.545H122.988L122.068 36.501H125.495C125.664 36.501 125.786 36.547 125.863 36.639C125.94 36.7157 125.963 36.8307 125.932 36.984L125.518 38.709C125.487 38.8623 125.434 38.9773 125.357 39.054C125.28 39.1153 125.165 39.146 125.012 39.146H121.47L120.504 43.355H125.15C125.503 43.355 125.641 43.516 125.564 43.838L125.15 45.563C125.119 45.7163 125.066 45.8313 124.989 45.908C124.912 45.9693 124.797 46 124.644 46H117.192C116.839 46 116.701 45.839 116.778 45.517L120.274 30.337C120.305 30.1837 120.358 30.0763 120.435 30.015C120.527 29.9383 120.65 29.9 120.803 29.9H127.91ZM127.387 46C127.034 46 126.896 45.839 126.973 45.517L130.469 30.337C130.499 30.1837 130.553 30.0763 130.63 30.015C130.722 29.9383 130.844 29.9 130.998 29.9H133.574C133.727 29.9 133.834 29.9307 133.896 29.992C133.957 30.0533 133.995 30.1453 134.011 30.268L134.977 41.745H135.207L135.437 36.57L136.886 30.337C136.916 30.1837 136.97 30.0763 137.047 30.015C137.139 29.9383 137.261 29.9 137.415 29.9H139.623C139.975 29.9 140.113 30.061 140.037 30.383L136.541 45.563C136.51 45.7163 136.456 45.8313 136.38 45.908C136.303 45.9693 136.188 46 136.035 46H133.413C133.275 46 133.175 45.9693 133.114 45.908C133.052 45.8467 133.014 45.747 132.999 45.609L132.033 34.155H131.803L131.55 39.33L130.124 45.563C130.093 45.7163 130.039 45.8313 129.963 45.908C129.886 45.9693 129.771 46 129.618 46H127.387ZM142.945 46.115C141.81 46.115 140.959 45.908 140.392 45.494C139.84 45.0647 139.564 44.4053 139.564 43.516C139.564 43.2093 139.617 42.7877 139.725 42.251L139.978 41.101C140.008 40.9477 140.062 40.8403 140.139 40.779C140.231 40.7023 140.353 40.664 140.507 40.664H142.83C143.182 40.664 143.32 40.825 143.244 41.147L142.922 42.55C142.891 42.7033 142.876 42.8183 142.876 42.895C142.876 43.1557 142.968 43.355 143.152 43.493C143.336 43.631 143.589 43.7 143.911 43.7H144.739C145.122 43.7 145.398 43.6157 145.567 43.447C145.751 43.2783 145.889 42.9793 145.981 42.55L146.51 40.112C146.525 40.0353 146.533 39.9357 146.533 39.813C146.533 39.307 146.241 39.054 145.659 39.054H144.141C143.098 39.054 142.324 38.8623 141.818 38.479C141.312 38.0803 141.059 37.467 141.059 36.639C141.059 36.225 141.112 35.7957 141.22 35.351L141.749 33.005C141.994 31.901 142.377 31.0883 142.899 30.567C143.435 30.0457 144.256 29.785 145.36 29.785H147.936C150.205 29.785 151.34 30.6283 151.34 32.315C151.34 32.683 151.278 33.1277 151.156 33.649L150.926 34.592C150.895 34.7453 150.841 34.8603 150.765 34.937C150.688 34.9983 150.573 35.029 150.42 35.029H148.097C147.759 35.029 147.621 34.868 147.683 34.546L147.959 33.35C147.989 33.1967 148.005 33.0893 148.005 33.028C148.005 32.752 147.913 32.545 147.729 32.407C147.545 32.269 147.284 32.2 146.947 32.2H146.096C145.712 32.2 145.436 32.2843 145.268 32.453C145.114 32.6217 144.992 32.9207 144.9 33.35L144.394 35.581C144.363 35.7343 144.348 35.8417 144.348 35.903C144.348 36.133 144.424 36.317 144.578 36.455C144.731 36.5777 144.953 36.639 145.245 36.639H146.74C147.782 36.639 148.557 36.8383 149.063 37.237C149.584 37.6203 149.845 38.2337 149.845 39.077C149.845 39.4757 149.791 39.8973 149.684 40.342L149.109 42.895C148.863 43.9837 148.472 44.7963 147.936 45.333C147.414 45.8543 146.609 46.115 145.521 46.115H142.945ZM159.575 29.9C159.927 29.9 160.065 30.061 159.989 30.383L159.621 31.993C159.59 32.1463 159.529 32.2613 159.437 32.338C159.36 32.3993 159.245 32.43 159.092 32.43H157.85L155.32 43.47H156.424C156.592 43.47 156.715 43.516 156.792 43.608C156.868 43.6847 156.891 43.7997 156.861 43.953L156.47 45.563C156.439 45.7163 156.385 45.8313 156.309 45.908C156.232 45.9693 156.117 46 155.964 46H150.352C149.999 46 149.861 45.839 149.938 45.517L150.306 43.907C150.336 43.7537 150.39 43.6463 150.467 43.585C150.543 43.5083 150.658 43.47 150.812 43.47H152.1L154.63 32.43H153.48C153.142 32.43 153.004 32.269 153.066 31.947L153.434 30.337C153.464 30.1837 153.518 30.0763 153.595 30.015C153.687 29.9383 153.809 29.9 153.963 29.9H159.575ZM169.527 29.9C169.88 29.9 170.018 30.061 169.941 30.383L169.504 32.223C169.474 32.3763 169.42 32.4913 169.343 32.568C169.267 32.6293 169.152 32.66 168.998 32.66H164.697L163.708 36.915H167.48C167.833 36.915 167.971 37.076 167.894 37.398L167.503 39.123C167.473 39.2763 167.411 39.3913 167.319 39.468C167.243 39.5293 167.128 39.56 166.974 39.56H163.087L161.707 45.563C161.677 45.7163 161.623 45.8313 161.546 45.908C161.47 45.9693 161.355 46 161.201 46H158.924C158.572 46 158.434 45.839 158.51 45.517L162.006 30.337C162.037 30.1837 162.091 30.0763 162.167 30.015C162.259 29.9383 162.382 29.9 162.535 29.9H169.527ZM170.49 46C170.153 46 170.015 45.839 170.076 45.517L171.226 40.526L170.099 30.406V30.291C170.099 30.0303 170.245 29.9 170.536 29.9H172.767C172.92 29.9 173.02 29.9307 173.066 29.992C173.127 30.038 173.166 30.13 173.181 30.268L173.595 34.661L173.319 37.26H173.664L174.561 34.661L176.999 30.268C177.076 30.13 177.152 30.038 177.229 29.992C177.321 29.9307 177.444 29.9 177.597 29.9H179.943C180.188 29.9 180.311 29.992 180.311 30.176C180.311 30.268 180.28 30.3677 180.219 30.475L174.446 40.526L173.273 45.563C173.242 45.7163 173.189 45.8313 173.112 45.908C173.035 45.9693 172.92 46 172.767 46H170.49Z" fill="#008C61"/>
<mask id="path-2-inside-1_29_478" fill="white">
<path d="M38.0536 35.9999C38.0649 28.4213 40.4677 21.0395 44.9196 14.9062C49.3715 8.77296 55.6455 4.20113 62.8476 1.84207C70.0498 -0.516984 77.8128 -0.542928 85.0306 1.76794C92.2483 4.0788 98.5527 8.60859 103.046 14.712L99.2191 17.5287C95.3192 12.2309 89.8469 8.29893 83.5818 6.29306C77.3166 4.28719 70.5782 4.30971 64.3266 6.35742C58.075 8.40512 52.6291 12.3735 48.7648 17.6973C44.9004 23.0211 42.8148 29.4286 42.805 36.007L38.0536 35.9999Z"/>
</mask>
<path d="M38.0536 35.9999C38.0649 28.4213 40.4677 21.0395 44.9196 14.9062C49.3715 8.77296 55.6455 4.20113 62.8476 1.84207C70.0498 -0.516984 77.8128 -0.542928 85.0306 1.76794C92.2483 4.0788 98.5527 8.60859 103.046 14.712L99.2191 17.5287C95.3192 12.2309 89.8469 8.29893 83.5818 6.29306C77.3166 4.28719 70.5782 4.30971 64.3266 6.35742C58.075 8.40512 52.6291 12.3735 48.7648 17.6973C44.9004 23.0211 42.8148 29.4286 42.805 36.007L38.0536 35.9999Z" stroke="#008C61" stroke-width="6" mask="url(#path-2-inside-1_29_478)"/>
<rect x="36" y="66" width="20" height="4" rx="2" fill="#008C61"/>
<mask id="path-4-inside-2_29_478" fill="white">
<path d="M104.323 59.4042C100.074 66.0438 93.7634 71.1054 86.3597 73.8118C78.9561 76.5181 70.8688 76.7197 63.3396 74.3854C55.8104 72.0511 49.2554 67.3101 44.6811 60.8903C40.1069 54.4705 37.7662 46.7267 38.0184 38.848L42.7674 39C42.5484 45.8389 44.5802 52.5606 48.5507 58.1331C52.5213 63.7057 58.2111 67.8209 64.7466 69.8471C71.2821 71.8733 78.302 71.6984 84.7285 69.3492C91.1549 67 96.6327 62.6065 100.321 56.8431L104.323 59.4042Z"/>
</mask>
<path d="M104.323 59.4042C100.074 66.0438 93.7634 71.1054 86.3597 73.8118C78.9561 76.5181 70.8688 76.7197 63.3396 74.3854C55.8104 72.0511 49.2554 67.3101 44.6811 60.8903C40.1069 54.4705 37.7662 46.7267 38.0184 38.848L42.7674 39C42.5484 45.8389 44.5802 52.5606 48.5507 58.1331C52.5213 63.7057 58.2111 67.8209 64.7466 69.8471C71.2821 71.8733 78.302 71.6984 84.7285 69.3492C91.1549 67 96.6327 62.6065 100.321 56.8431L104.323 59.4042Z" stroke="#008C61" stroke-width="6" mask="url(#path-4-inside-2_29_478)"/>
<rect x="48" y="36" width="36" height="5" fill="#008C61"/>
<rect x="33" y="8" width="21" height="4" rx="2" fill="#008C61"/>
<rect x="14" y="22" width="31" height="4" rx="2" fill="#008C61"/>
<rect x="14" y="52" width="32" height="4" rx="2" fill="#008C61"/>
<rect y="36" width="36" height="4" rx="2" fill="#008C61"/>
</svg>
